<svg width="50" height="50" viewBox="0 0 50 50" fill="none" xmlns="http://www.w3.org/2000/svg">
<path d="M25 0.84737L28.713 5.92771L28.9771 6.28913L29.3654 6.06639L34.8238 2.93548L36.1494 9.0868L36.2437 9.52441L36.689 9.47887L42.9489 8.83874L41.6579 14.9974L41.5661 15.4356L41.9915 15.5751L47.9705 17.5364L44.2862 22.6376L44.0241 23.0005L44.3559 23.301L49.0203 27.5246L43.5797 30.6862L43.1926 30.9111L43.3736 31.3206L45.9168 37.0763L39.6606 37.7517L39.2155 37.7997L39.2143 38.2474L39.1966 44.5399L33.2066 42.6122L32.7804 42.4751L32.5972 42.8835L30.0216 48.6248L25.3335 44.4275L25 44.1289L24.6665 44.4275L19.9784 48.6248L17.4028 42.8835L17.2196 42.4751L16.7934 42.6122L10.8034 44.5399L10.7857 38.2474L10.7845 37.7997L10.3394 37.7517L4.08321 37.0763L6.62642 31.3206L6.80735 30.9111L6.4203 30.6862L0.979683 27.5246L5.64408 23.301L5.97591 23.0005L5.7138 22.6376L2.02949 17.5364L8.00854 15.5751L8.4339 15.4356L8.34206 14.9974L7.0511 8.83874L13.311 9.47887L13.7563 9.52441L13.8506 9.0868L15.1762 2.93548L20.6346 6.06639L21.0229 6.28913L21.287 5.92771L25 0.84737Z" fill="#27AE60" stroke="white"/>
</svg>
