<svg width="60" height="60" viewBox="0 0 60 60" fill="none" xmlns="http://www.w3.org/2000/svg">
<circle cx="30.38" cy="28.38" r="27.68" stroke="#FFDA56" stroke-width="1.4"/>
<path d="M18.6042 42.6303H18.649C19.13 42.6257 19.6051 42.5242 20.046 42.3319C20.4868 42.1396 20.8845 41.8605 21.2151 41.5111L31.5781 30.6344L31.7583 30.815C31.8263 30.8831 31.9072 30.9372 31.9961 30.9741C32.0851 31.0109 32.1805 31.0299 32.2768 31.0299C32.3731 31.0299 32.4685 31.0109 32.5575 30.9741C32.6464 30.9372 32.7273 30.8831 32.7953 30.815L34.2032 29.4071C34.537 29.606 34.9076 29.7354 35.2926 29.7875C35.6069 29.8279 35.899 29.9709 36.1235 30.1944L36.45 30.5204C36.3539 30.8097 36.3401 31.1201 36.4102 31.4168C36.4802 31.7135 36.6314 31.9849 36.8468 32.2006L38.7202 34.074C38.8577 34.2114 39.0441 34.2886 39.2385 34.2886C39.4329 34.2886 39.6193 34.2114 39.7568 34.074L44.785 29.0459C44.8531 28.9778 44.9072 28.897 44.9441 28.808C44.981 28.719 44.9999 28.6237 44.9999 28.5274C44.9999 28.431 44.981 28.3357 44.9441 28.2467C44.9072 28.1577 44.8531 28.0769 44.785 28.0088L42.9149 26.1333C42.763 25.9806 42.5823 25.8595 42.3833 25.7771C42.1843 25.6947 41.9709 25.6526 41.7555 25.6531C41.5788 25.653 41.4032 25.6813 41.2355 25.7369L40.9095 25.4114C40.6857 25.1869 40.5428 24.8945 40.5031 24.58C40.421 23.9432 40.131 23.3512 39.678 22.896L30.4966 13.715C30.4286 13.6469 30.3477 13.5928 30.2588 13.5559C30.1698 13.519 30.0744 13.5001 29.9781 13.5001C29.8818 13.5001 29.7864 13.519 29.6974 13.5559C29.6085 13.5928 29.5276 13.6469 29.4596 13.715L27.8589 15.3152C27.7496 15.4246 27.6776 15.5657 27.6533 15.7184C27.629 15.8711 27.6536 16.0276 27.7236 16.1654L27.7655 16.2492C28.1822 17.0647 28.3295 17.9914 28.1862 18.8959C28.0428 19.8004 27.6162 20.6362 26.9677 21.2828C26.8995 21.3509 26.8455 21.4317 26.8086 21.5207C26.7717 21.6097 26.7527 21.705 26.7527 21.8014C26.7527 21.8977 26.7717 21.993 26.8086 22.082C26.8455 22.171 26.8995 22.2518 26.9677 22.3199L28.2193 23.5715L26.8851 24.9052C26.7477 25.0427 26.6706 25.2291 26.6706 25.4235C26.6706 25.6179 26.7477 25.8043 26.8851 25.9418L26.9945 26.0512L16.1178 36.4142C15.5963 36.9113 15.2358 37.5532 15.0825 38.2571C14.9292 38.961 14.9903 39.6946 15.2579 40.3635C15.5254 41.0324 15.9872 41.6058 16.5836 42.0098C17.18 42.4138 17.8838 42.6299 18.6042 42.6303ZM29.2597 15.9882L29.9779 15.2704L38.6401 23.9318C38.8635 24.1567 39.0066 24.4488 39.0474 24.7632C39.1283 25.4005 39.4185 25.993 39.8725 26.4476L40.5948 27.1704C40.6629 27.2385 40.7437 27.2926 40.8327 27.3295C40.9217 27.3664 41.017 27.3854 41.1134 27.3854C41.2097 27.3854 41.3051 27.3664 41.394 27.3295C41.483 27.2926 41.5638 27.2385 41.6319 27.1704C41.6646 27.1377 41.7089 27.1194 41.7551 27.1194C41.8013 27.1194 41.8456 27.1377 41.8783 27.1704L43.2334 28.5255L39.2402 32.5187L37.8851 31.1636C37.8526 31.1308 37.8344 31.0865 37.8344 31.0404C37.8344 30.9943 37.8526 30.95 37.8851 30.9172C37.9532 30.8492 38.0073 30.7684 38.0441 30.6794C38.081 30.5905 38.1 30.4952 38.1 30.3989C38.1 30.3026 38.081 30.2073 38.0441 30.1183C38.0073 30.0294 37.9532 29.9486 37.8851 29.8806L37.1619 29.1569C36.7067 28.7039 36.1145 28.4139 35.4774 28.3323C35.1634 28.2924 34.8715 28.1494 34.6474 27.9259L28.4929 21.7689C29.1209 20.9594 29.5228 19.9978 29.6576 18.9822C29.7923 17.9665 29.655 16.9334 29.2597 15.9882ZM33.092 28.4442L32.277 29.2596L28.4409 25.4235L29.2559 24.6081L33.092 28.4442ZM17.1293 37.4756L28.032 27.0883L30.541 29.5973L20.1545 40.5C19.9583 40.7072 19.7223 40.8727 19.4607 40.9867C19.1991 41.1006 18.9172 41.1607 18.6318 41.1633C18.0568 41.1616 17.505 40.9362 17.0932 40.5348C16.8916 40.3331 16.7323 40.0931 16.6248 39.8289C16.5173 39.5647 16.4637 39.2817 16.4672 38.9965C16.4706 38.7113 16.5311 38.4297 16.645 38.1682C16.759 37.9067 16.924 37.6707 17.1305 37.4739L17.1293 37.4756Z" fill="#FFDA56"/>
</svg>
