<svg width="60" height="60" viewBox="0 0 60 60" fill="none" xmlns="http://www.w3.org/2000/svg">
<circle cx="29.88" cy="29.88" r="27.68" stroke="#FFDA56" stroke-width="1.4"/>
<path d="M35.2941 46.5C35.1378 46.5 34.9858 46.4474 34.8621 46.3504L24.2739 38.0308C24.1887 37.9639 24.1196 37.8781 24.0722 37.7799C24.0247 37.6818 24 37.5739 24 37.4645V24.0356C24 23.9262 24.0247 23.8183 24.0722 23.7202C24.1196 23.622 24.1887 23.5362 24.2739 23.4693L34.8621 15.1497C34.9665 15.0678 35.0915 15.0172 35.2228 15.0037C35.3542 14.9901 35.4866 15.0142 35.6051 15.0732C35.7236 15.1322 35.8234 15.2237 35.8932 15.3373C35.963 15.4509 36 15.5821 36 15.716V45.7841C36 45.974 35.9257 46.1561 35.7933 46.2903C35.6609 46.4246 35.4814 46.5 35.2941 46.5ZM25.4118 37.1137L34.5883 44.3236V17.1765L25.4118 24.3864V37.1137Z" fill="#FFDA56"/>
<path d="M18.1368 39C16.1114 39 14.1689 38.2098 12.7368 36.8033C11.3046 35.3968 10.5 33.4891 10.5 31.5C10.5 29.5109 11.3046 27.6032 12.7368 26.1967C14.1689 24.7902 16.1114 24 18.1368 24H25.5V25.444H18.1375C17.3277 25.4447 16.526 25.602 15.7781 25.907C15.0303 26.212 14.3509 26.6587 13.7788 27.2216C13.2067 27.7844 12.7531 28.4524 12.4439 29.1875C12.1346 29.9225 11.9759 30.7101 11.9766 31.5054C11.9773 32.3007 12.1375 33.0881 12.4481 33.8225C12.7586 34.557 13.2135 35.2242 13.7866 35.7861C14.3597 36.3479 15.0399 36.7934 15.7883 37.0971C16.5367 37.4008 17.3387 37.5567 18.1485 37.556L25.5 37.5423V38.9863L18.1485 39H18.1368Z" fill="#FFDA56"/>
<path d="M18 24H19.5V37.5H18V24Z" fill="#FFDA56"/>
<path d="M44.5423 42L43.5 41.0219C46.399 38.2956 48.027 34.6014 48.027 30.75C48.027 26.8986 46.399 23.2044 43.5 20.4781L44.5423 19.5C47.7171 22.486 49.5 26.5319 49.5 30.75C49.5 34.9681 47.7171 39.014 44.5423 42Z" fill="#FFDA56"/>
<path d="M41.5967 39L40.5 38.0001C42.3883 36.2749 43.4488 33.9372 43.4488 31.5C43.4488 29.0628 42.3883 26.7251 40.5 24.9999L41.5967 24C43.776 25.9903 45 28.6877 45 31.5C45 34.3123 43.776 37.0097 41.5967 39Z" fill="#FFDA56"/>
<path d="M39.613 34.5L39 33.4287C39.4059 32.7177 39.6338 31.7543 39.6338 30.75C39.6338 29.7457 39.4059 28.7823 39 28.0713L39.613 27C40.181 27.9955 40.5 29.3441 40.5 30.75C40.5 32.1559 40.181 33.5045 39.613 34.5Z" fill="#FFDA56"/>
</svg>
