<svg width="60" height="60" viewBox="0 0 60 60" fill="none" xmlns="http://www.w3.org/2000/svg">
<circle cx="30.38" cy="30.38" r="27.68" stroke="#FFDA56" stroke-width="1.4"/>
<path d="M17 18.6746C22.9531 18.6746 28.0719 16.7307 30.5 14C32.9281 16.7307 38.0469 18.6746 44 18.6746V33.1057C44 36.6696 42.1062 39.9742 39.0031 41.7978L30.5 47L21.9969 41.7978C18.9031 39.9742 17 36.6696 17 33.1057V18.6746Z" stroke="#FFDA56" stroke-width="1.4" stroke-miterlimit="10"/>
<path d="M38.7524 25.675L38.751 25.6699C38.7068 25.4856 38.5752 25.3347 38.3986 25.2735C38.3563 25.2589 37.3428 24.9151 35.9098 25.0198C34.5923 25.1163 32.6453 25.624 30.8516 27.4956C29.5189 28.8862 28.9081 30.365 28.6442 31.5973L25.9182 28.7529C25.7081 28.5338 25.3677 28.5338 25.1575 28.7529C24.9475 28.9721 24.9475 29.3274 25.1575 29.5466L28.3433 32.8709C28.3813 32.9105 28.4236 32.9426 28.4685 32.968C28.4073 34.3598 28.7089 35.3282 28.7223 35.3705C28.7758 35.5386 28.9022 35.6705 29.0634 35.7263C29.1002 35.7391 29.8686 36.0001 31.0084 36C31.1815 36 31.3633 35.994 31.5522 35.9801C32.8697 35.8838 34.8167 35.376 36.6103 33.5045C39.7861 30.1907 38.9519 26.4011 38.7524 25.675ZM35.8496 32.7108C34.6104 34.0039 33.1545 34.726 31.5223 34.8569C31.0687 34.8934 30.6635 34.8767 30.3314 34.8411L35.6688 29.2717C35.8788 29.0526 35.8788 28.6972 35.6688 28.478C35.4587 28.2589 35.1182 28.2589 34.9081 28.478L29.5707 34.0473C29.5365 33.7006 29.5205 33.2778 29.5554 32.8047C29.681 31.1015 30.373 29.5823 31.6122 28.2893C32.8515 26.9961 34.3074 26.2741 35.9397 26.143C36.7655 26.0764 37.433 26.1861 37.7859 26.2661C38.0004 27.2866 38.3075 30.1461 35.8496 32.7108Z" fill="#FFDA56"/>
<path d="M29.6001 27.1242C26.2103 24.2406 22.5731 25.4017 22.4198 25.4525C22.2389 25.5126 22.1041 25.6608 22.0588 25.8417L22.0574 25.8467C21.853 26.5597 20.9983 30.2808 24.2521 33.5347C24.9782 34.2607 25.7859 34.8354 26.6528 35.2429C26.7285 35.2785 26.8083 35.2954 26.8868 35.2953C27.0937 35.2953 27.2921 35.1782 27.3859 34.9786C27.5154 34.7031 27.3971 34.3749 27.1216 34.2454C26.3704 33.8923 25.6672 33.3909 25.0315 32.7553C22.5127 30.2364 22.8281 27.4279 23.0477 26.4265C23.8876 26.243 26.4698 25.9083 28.8859 27.9638C29.1178 28.161 29.4655 28.1329 29.6628 27.9011C29.86 27.6692 29.8319 27.3214 29.6001 27.1242Z" fill="#FFDA56"/>
</svg>
