<svg width="60" height="60" viewBox="0 0 60 60" fill="none" xmlns="http://www.w3.org/2000/svg">
<circle cx="30.38" cy="30.38" r="27.68" stroke="#FFDA56" stroke-width="1.4"/>
<path d="M42.2043 27.331C41.398 27.1463 40.0524 26.8381 39.9014 26.4655L39.8861 26.4142C39.8858 26.4133 39.8855 26.4123 39.8852 26.4114C39.4665 25.0553 38.7882 23.8143 37.8691 22.7223C37.6702 22.3997 38.4575 21.2417 38.718 20.8586C38.8585 20.652 38.8049 20.3707 38.5983 20.2302C38.3918 20.0897 38.1105 20.1434 37.97 20.3499C37.2216 21.4507 36.5951 22.5016 37.1415 23.2606C37.1484 23.2701 37.1556 23.2794 37.1631 23.2884C38.0114 24.2918 38.6367 25.433 39.0216 26.6804C39.0216 26.6807 39.0217 26.6809 39.0217 26.6812L39.0392 26.7398C39.0414 26.7471 39.0437 26.7543 39.0463 26.7613C39.3473 27.6046 40.6369 27.9 42.0024 28.2127C42.5904 28.3474 43.1984 28.4866 43.6215 28.6568C44.0148 28.815 44.0952 28.9389 44.0952 28.9633C44.0952 29.0123 44.0028 29.1387 43.6563 29.3018C43.2677 29.4847 42.7278 29.6385 42.1562 29.8012C40.8616 30.17 39.5228 30.5513 39.2562 31.4911C39.2532 31.5015 39.2507 31.5121 39.2485 31.5226C39.2414 31.5565 39.234 31.5902 39.2265 31.6239L39.2222 31.6433C39.22 31.6531 39.2182 31.6628 39.2167 31.6727C39.0866 32.5253 39.7331 33.1472 40.3036 33.6959C40.9457 34.3137 41.2313 34.6473 41.0763 35.0358C40.9888 35.2548 40.968 35.3068 40.2144 35.0708C39.4926 34.8447 38.4018 34.5031 37.424 35.4809C37.4112 35.4937 37.3992 35.5073 37.388 35.5215C35.5355 37.8822 32.7543 39.2361 29.7575 39.2361C28.9959 39.2361 28.236 39.1469 27.4989 38.9711C27.4828 38.9672 27.4664 38.9642 27.4499 38.9622C26.1263 38.7969 25.3596 39.8791 24.7433 40.7484C24.047 41.7306 23.7786 41.9817 23.3426 41.7533C23.2063 41.6819 23.1259 41.6079 23.1036 41.5336C23.0376 41.3135 23.2991 40.8413 23.5298 40.4247C24.0207 39.5382 24.7625 38.1985 23.5736 37.0096C23.5642 37.0001 23.5542 36.991 23.544 36.9824C22.1882 35.8488 21.1681 34.3717 20.5939 32.7107C20.5905 32.7009 20.5868 32.6912 20.5827 32.6817C20.5613 32.6315 20.5454 32.5839 20.5337 32.535C20.5315 32.5263 20.5291 32.5177 20.5265 32.5091C20.5254 32.5053 20.5242 32.5014 20.523 32.4976L20.5116 32.4623C20.5066 32.447 20.5017 32.4318 20.4969 32.4165C20.494 32.4068 20.4907 32.3973 20.487 32.3878C20.1592 31.5356 19.0275 31.3771 17.9331 31.2239C16.8291 31.0693 16.0476 30.9249 16.0476 30.4738C16.0476 30.3663 16.0476 30.219 16.4241 30.1036C16.7826 29.9938 17.3016 29.9735 17.8035 29.9537C18.8197 29.9138 19.9716 29.8686 20.0835 28.92C20.0844 28.9124 20.0852 28.9047 20.0857 28.8971L20.0901 28.8278C20.0908 28.817 20.0912 28.8062 20.0912 28.7954C20.0912 28.0462 19.276 27.3071 17.946 26.1634C17.0925 25.4295 15.9238 24.4244 15.9046 23.9149C15.9028 23.8684 15.9121 23.8312 15.9648 23.7786C16.3673 23.3762 17.2928 23.5706 18.2727 23.7763C19.6635 24.0684 21.2397 24.3995 22.3431 23.2961C22.3518 23.2875 22.36 23.2785 22.3679 23.2692C23.3715 22.0884 24.6563 21.1549 26.0836 20.5698C26.0905 20.567 26.0973 20.564 26.104 20.5609C26.1093 20.5584 26.1146 20.5559 26.1204 20.5539C26.1284 20.5512 26.1364 20.5482 26.1443 20.5451L26.1932 20.5251C26.2025 20.5214 26.2117 20.5174 26.2208 20.5131C26.8684 20.2059 27.1271 19.2015 27.4266 18.0385C27.6186 17.2928 27.9762 15.9046 28.3511 15.9046C28.6758 15.9046 28.9479 16.7304 29.1665 17.3941C29.5211 18.4707 29.9231 19.6909 31.0116 19.9281C31.0237 19.9308 31.0359 19.9329 31.0482 19.9345C31.6031 20.0083 32.154 20.131 32.6857 20.2993C32.6955 20.3024 32.7054 20.3051 32.7154 20.3075C32.8083 20.3302 32.9032 20.341 33.0004 20.341C33.8907 20.3408 34.9555 19.4333 36.1694 18.3985C37.4071 17.3434 38.9473 16.0304 39.5283 16.6113C39.9076 16.9906 39.7186 17.7153 38.9154 18.9611C38.78 19.171 38.8405 19.4509 39.0504 19.5863C39.2604 19.7216 39.5403 19.6611 39.6757 19.4512C40.1415 18.7286 41.2326 17.0363 40.168 15.9716C39.6204 15.4241 38.8504 15.4224 37.8794 15.9664C37.1463 16.3772 36.3513 17.0548 35.5826 17.7102C34.6791 18.4804 33.4446 19.5335 32.9407 19.4312C32.3713 19.2522 31.7822 19.1209 31.1888 19.0407C30.6151 18.9001 30.3021 17.9501 30.0257 17.111C29.6837 16.0732 29.3301 15 28.3511 15C27.275 15 26.9067 16.43 26.5506 17.8129C26.383 18.4635 26.1037 19.548 25.8411 19.6917C25.8357 19.6939 25.8303 19.6962 25.8249 19.6984L25.8148 19.7025C25.7875 19.7123 25.7599 19.7236 25.7312 19.7366C24.1804 20.3741 22.7842 21.3874 21.6914 22.6685C20.9329 23.4108 19.6752 23.1466 18.4587 22.8911C17.2864 22.6449 16.0741 22.3902 15.3253 23.139C15.1015 23.3628 14.9893 23.6428 15.0008 23.9489C15.0348 24.8528 16.1625 25.8225 17.3563 26.8492C18.0348 27.4327 19.1664 28.4058 19.1865 28.7853L19.1844 28.8185C19.1725 28.8574 19.0681 28.907 18.9199 28.9436C18.6249 29.0162 18.2087 29.0326 17.7681 29.0499C17.2086 29.0719 16.63 29.0946 16.1593 29.2388C15.3193 29.4961 15.1431 30.0525 15.1431 30.4739C15.1431 31.7466 16.6205 31.9536 17.8078 32.1198C18.5573 32.2248 19.4886 32.3551 19.6387 32.7027C19.643 32.7159 19.6472 32.7291 19.6515 32.7423L19.6582 32.763C19.6799 32.8494 19.708 32.9339 19.7438 33.0203C20.3703 34.8241 21.4776 36.4288 22.9474 37.6626C23.5897 38.3178 23.2964 38.9791 22.7386 39.9865C22.3906 40.6148 22.0619 41.2084 22.2373 41.7933C22.3321 42.1097 22.5629 42.3659 22.9231 42.5545C23.1559 42.6765 23.3894 42.7373 23.619 42.7373C23.921 42.7373 24.2161 42.632 24.4935 42.4225C24.8638 42.1426 25.1639 41.7194 25.4814 41.2715C26.1213 40.3689 26.597 39.7807 27.3156 39.8572C28.1131 40.0453 28.9345 40.1407 29.7576 40.1407C33.0245 40.1407 36.0569 38.6693 38.082 36.1026C38.6263 35.5722 39.1504 35.6854 39.9442 35.934C40.5628 36.1277 41.4978 36.4206 41.9166 35.3711C42.3142 34.3748 41.5472 33.6369 40.9309 33.0441C40.4836 32.6138 40.0609 32.2071 40.1094 31.8217L40.1099 31.8196C40.1168 31.7886 40.1236 31.7575 40.1302 31.7263C40.277 31.2771 41.5053 30.9272 42.4042 30.6712C43.7391 30.291 45 29.9318 45 28.9633C44.9999 27.9712 43.642 27.6602 42.2043 27.331Z" fill="#FFDA56"/>
<path d="M28.2692 24.1166C26.866 24.1166 25.7245 25.2581 25.7245 26.6613C25.7245 28.0644 26.866 29.2059 28.2692 29.2059C29.6723 29.2059 30.8139 28.0644 30.8139 26.6613C30.8139 25.2581 29.6723 24.1166 28.2692 24.1166ZM28.2692 28.3013C27.3648 28.3013 26.6291 27.5656 26.6291 26.6612C26.6291 25.7568 27.3648 25.0211 28.2692 25.0211C29.1736 25.0211 29.9093 25.7568 29.9093 26.6612C29.9093 27.5656 29.1736 28.3013 28.2692 28.3013Z" fill="#FFDA56"/>
<path d="M28.6523 32.9576C27.7529 32.9576 27.0212 33.6894 27.0212 34.5888C27.0212 35.4881 27.7529 36.2198 28.6523 36.2198C29.5517 36.2198 30.2834 35.4881 30.2834 34.5888C30.2834 33.6894 29.5517 32.9576 28.6523 32.9576ZM28.6523 35.3153C28.2517 35.3153 27.9258 34.9894 27.9258 34.5888C27.9258 34.1882 28.2517 33.8622 28.6523 33.8622C29.0529 33.8622 29.3788 34.1882 29.3788 34.5888C29.3788 34.9894 29.0529 35.3153 28.6523 35.3153Z" fill="#FFDA56"/>
<path d="M43.1002 37.2772C42.8388 37.4495 42.562 37.7126 42.2688 37.9912C41.8776 38.363 41.2863 38.9249 40.9793 38.9249C40.2816 38.9249 39.6166 39.1423 39.0552 39.5538C39.0221 39.5754 38.992 39.5984 38.9644 39.6232C38.8315 39.6501 38.4398 39.5576 38.2022 39.5014C37.527 39.3418 36.6868 39.1432 36.2961 39.7904C35.8752 40.4874 36.5918 41.1098 37.1151 41.5642C37.3141 41.7371 37.6828 42.0572 37.7209 42.1924C37.7259 43.9849 39.1857 45.4418 40.9793 45.4418C42.776 45.4418 44.2378 43.98 44.2378 42.1833C44.2378 41.8051 44.1731 41.4337 44.0456 41.0795C44.0418 41.0692 44.0378 41.059 44.0333 41.049C43.8865 40.7187 44.0833 39.9704 44.2415 39.3691C44.4741 38.4842 44.6751 37.72 44.2255 37.2704C44.0601 37.1049 43.6938 36.8858 43.1002 37.2772ZM43.3666 39.139C43.1544 39.9459 42.9351 40.78 43.199 41.3988C43.288 41.6505 43.3332 41.9144 43.3332 42.1833C43.3332 43.4813 42.2773 44.5372 40.9793 44.5372C39.6814 44.5372 38.6255 43.4813 38.6255 42.1833C38.6255 41.6779 38.1799 41.2909 37.7082 40.8813C37.5142 40.7128 37.1668 40.4111 37.0915 40.2542C37.2566 40.2074 37.749 40.3238 37.994 40.3817C38.5454 40.512 39.0661 40.6352 39.4489 40.3905C39.4637 40.381 39.4779 40.3707 39.4915 40.3596C39.5011 40.3517 39.511 40.3441 39.5209 40.3364L39.5347 40.3257C39.5432 40.3191 39.5515 40.3121 39.5596 40.3049C39.5667 40.3002 39.5736 40.2954 39.5804 40.2904C39.9877 39.9888 40.4714 39.8294 40.9793 39.8294C41.6474 39.8294 42.28 39.2283 42.8919 38.6469C43.1031 38.4462 43.3977 38.1662 43.5917 38.0342C43.5868 38.3016 43.4531 38.8102 43.3666 39.139Z" fill="#FFDA56"/>
<path d="M36.1728 31.0938C36.3331 31.0817 36.4916 31.096 36.6438 31.1363C37.1512 31.2708 37.6788 31.1663 38.0913 30.8497C38.491 30.5429 38.721 30.0784 38.7223 29.5758V29.5513C38.7223 24.6167 34.7077 20.6021 29.773 20.6021C27.4047 20.6021 25.1723 21.5181 23.4869 23.1815C21.8032 24.8432 20.8577 27.0602 20.8247 29.424C20.7889 31.9863 21.8661 34.4498 23.78 36.1829C23.9651 36.3505 24.2511 36.3364 24.4188 36.1512C24.5865 35.9661 24.5723 35.6801 24.3872 35.5124C22.6658 33.9537 21.697 31.7392 21.7292 29.4367C21.7588 27.312 22.6087 25.3192 24.1223 23.8253C25.6373 22.3301 27.6441 21.5067 29.773 21.5067C34.2089 21.5067 37.8177 25.1155 37.8177 29.5514V29.5729C37.8171 29.7968 37.7187 29.9954 37.5405 30.1321C37.3522 30.2767 37.1097 30.324 36.8754 30.2619C36.6254 30.1957 36.3661 30.1722 36.1047 30.1918C34.9725 30.2774 34.0589 31.1963 33.9797 32.3293C33.9344 32.9774 34.1526 33.5951 34.5941 34.0685C34.9406 34.44 35.401 34.6854 35.896 34.7703C34.3745 36.5562 32.1494 37.596 29.7727 37.596C29.7589 37.596 29.7446 37.596 29.7307 37.5958C28.4088 37.589 27.0977 37.2504 25.9391 36.6167C25.72 36.4967 25.4452 36.5773 25.3253 36.7964C25.2054 37.0156 25.2859 37.2904 25.505 37.4103C26.7949 38.1158 28.2545 38.4928 29.726 38.5004C29.7416 38.5005 29.7571 38.5005 29.7727 38.5005C32.7705 38.5005 35.552 37.0132 37.2205 34.5153C37.3273 34.3555 37.3213 34.1456 37.2057 33.992C37.09 33.8384 36.8899 33.7747 36.7067 33.8333C36.571 33.8767 36.4285 33.8987 36.283 33.8987C35.8893 33.8987 35.5244 33.7399 35.2556 33.4516C34.9871 33.1637 34.8545 32.7875 34.8821 32.3924C34.9301 31.7041 35.4851 31.1458 36.1728 31.0938Z" fill="#FFDA56"/>
<path d="M34.6743 26.8588C34.8567 26.8238 35.0008 26.6723 35.0317 26.49C35.0644 26.2969 34.9635 26.0996 34.7889 26.012C34.6255 25.93 34.4237 25.9564 34.2864 26.077C34.1406 26.205 34.0939 26.4199 34.1718 26.5972C34.2558 26.7888 34.4688 26.9008 34.6743 26.8588Z" fill="#FFDA56"/>
<path d="M40.3985 41.5069C40.3236 41.3294 40.1406 41.2142 39.9474 41.2291C39.7684 41.2428 39.6115 41.3635 39.553 41.5332C39.4184 41.9242 39.8587 42.2783 40.2132 42.068C40.4023 41.9558 40.4841 41.7099 40.3985 41.5069Z" fill="#FFDA56"/>
<path d="M42.3017 42.6714C42.2251 42.4898 42.0364 42.3756 41.8396 42.3947C41.6511 42.4131 41.4915 42.5515 41.4453 42.7347C41.4021 42.9063 41.4662 43.0923 41.6058 43.2008C41.7664 43.3256 41.9943 43.3269 42.1568 43.2049C42.3214 43.0815 42.3759 42.8608 42.3017 42.6714Z" fill="#FFDA56"/>
<path d="M25.6419 30.9119C25.3009 30.6816 24.8475 31.0143 24.9554 31.4085C25.061 31.794 25.6017 31.853 25.7899 31.5011C25.8991 31.2968 25.8312 31.0412 25.6419 30.9119Z" fill="#FFDA56"/>
</svg>
