<svg width="60" height="60" viewBox="0 0 60 60" fill="none" xmlns="http://www.w3.org/2000/svg">
<circle cx="30" cy="30" r="29.3" stroke="#FFDA56" stroke-width="1.4"/>
<path d="M48.6786 42.5903C48.6786 41.6889 49.0365 40.9842 49.3825 40.3025C49.8923 39.2984 50.5268 38.0487 49.2565 36.6374C47.9862 35.2262 46.8614 35.931 45.9575 36.4974C45.344 36.8819 44.7096 37.2795 43.8983 37.2795C43.6514 37.2795 43.4276 37.2677 43.2139 37.2436C42.8912 37.2066 42.6043 37.4676 42.5715 37.8252C42.5386 38.183 42.773 38.5026 43.0949 38.539C43.3485 38.5678 43.6113 38.5817 43.8982 38.5817C45.0173 38.5817 45.8578 38.055 46.5333 37.6317C47.4855 37.0349 47.8159 36.8787 48.4278 37.5584C49.0394 38.2379 48.8987 38.6049 48.3617 39.6627C47.9807 40.4131 47.5066 41.347 47.5066 42.5903C47.5066 43.9964 47.7601 44.7395 47.9837 45.3949C48.1669 45.932 48.3289 46.4067 48.3729 47.2589H39.9724C40.0434 46.9437 40.1334 46.6762 40.2273 46.3997C40.4501 45.743 40.7027 44.9985 40.7027 43.59C40.7027 43.2304 40.4404 42.9389 40.1166 42.9389C39.7929 42.9389 39.5306 43.2304 39.5306 43.59C39.5306 44.7613 39.3452 45.3077 39.1306 45.9405C39.0053 46.31 38.8663 46.7197 38.7719 47.259H30.2936C30.3645 46.9439 30.4546 46.6764 30.5485 46.3999C30.7713 45.7431 31.0238 44.9986 31.0238 43.5901C31.0238 43.2304 30.7615 42.939 30.4378 42.939C30.1141 42.939 29.8518 43.2304 29.8518 43.5901C29.8518 44.7613 29.6664 45.3078 29.4518 45.9406C29.3265 46.3101 29.1875 46.7198 29.093 47.2591H20.6148C20.6857 46.944 20.7758 46.6765 20.8697 46.4C21.0925 45.7432 21.345 44.9987 21.345 43.5902C21.345 43.2305 21.0827 42.9391 20.759 42.9391C20.4354 42.9391 20.173 43.2305 20.173 43.5902C20.173 44.7614 19.9876 45.3079 19.773 45.9406C19.6476 46.3102 19.5086 46.7199 19.4142 47.2592H16.0103C15.6867 47.2592 15.4243 47.5506 15.4243 47.9103C15.4243 48.27 15.6867 48.5614 16.0103 48.5614H48.8175C49.2251 48.5614 49.5567 48.1936 49.5567 47.7382C49.5567 46.3321 49.3032 45.5891 49.0796 44.9337C48.8644 44.3027 48.6786 43.758 48.6786 42.5903Z" fill="#FFDA56"/>
<path d="M13.6674 47.2589H11.6271C11.6711 46.4082 11.833 45.9331 12.0163 45.3959C12.24 44.7404 12.4934 43.9974 12.4934 42.591C12.4934 41.3476 12.0193 40.4137 11.6383 39.6632C11.1012 38.6051 10.9605 38.2381 11.5723 37.5582C12.1839 36.8788 12.5143 37.0351 13.4663 37.6317C14.1416 38.055 14.9821 38.5817 16.1011 38.5817C17.3666 38.5817 18.0353 38.3001 18.6252 38.0517C19.1928 37.8126 19.6831 37.6062 20.734 37.6062C21.7848 37.6062 22.275 37.8126 22.8425 38.0517C23.4325 38.3001 24.101 38.5817 25.3666 38.5817C26.6321 38.5817 27.3007 38.3001 27.8906 38.0517C28.4583 37.8126 28.9485 37.6062 29.9992 37.6062C31.0501 37.6062 31.5404 37.8126 32.108 38.0517C32.698 38.3001 33.3665 38.5817 34.6322 38.5817C35.8978 38.5817 36.5664 38.3001 37.1563 38.0517C37.7239 37.8126 38.214 37.6062 39.2649 37.6062C39.807 37.6062 40.2504 37.6626 40.6607 37.784C40.9738 37.8763 41.2945 37.6698 41.3778 37.3222C41.4609 36.9747 41.2749 36.618 40.9622 36.5255C40.4508 36.3743 39.9115 36.3039 39.2649 36.3039C37.9994 36.3039 37.3307 36.5855 36.7408 36.8339C36.1732 37.073 35.683 37.2795 34.6322 37.2795C33.5813 37.2795 33.091 37.073 32.5234 36.8339C31.9334 36.5856 31.2648 36.3039 29.9992 36.3039C28.7338 36.3039 28.0651 36.5856 27.4752 36.8339C26.9075 37.073 26.4173 37.2795 25.3665 37.2795C24.3157 37.2795 23.8255 37.073 23.2579 36.8339C22.668 36.5856 21.9994 36.3039 20.7339 36.3039C19.4683 36.3039 18.7997 36.5856 18.2098 36.8339C17.6421 37.073 17.1519 37.2795 16.101 37.2795C15.2898 37.2795 14.6555 36.8819 14.042 36.4974C13.1383 35.9309 12.0135 35.2259 10.7435 36.6375C9.47323 38.049 10.1077 39.2987 10.6174 40.303C10.9635 40.9847 11.3213 41.6895 11.3213 42.5909C11.3213 43.7587 11.1355 44.3035 10.9204 44.9342C10.6967 45.5898 10.4433 46.3327 10.4433 47.7411C10.4434 48.1932 10.7751 48.5609 11.1825 48.5609H13.6672C13.9909 48.5609 14.2532 48.2695 14.2532 47.9098C14.2532 47.5502 13.991 47.2589 13.6674 47.2589Z" fill="#FFDA56"/>
<path d="M20.987 18.1787C21.3106 18.1787 21.573 17.8873 21.573 17.5276V12.6511C21.573 12.2914 21.3106 12 20.987 12C20.6634 12 20.401 12.2914 20.401 12.6511V17.5276C20.401 17.8872 20.6634 18.1787 20.987 18.1787Z" fill="#FFDA56"/>
<path d="M18.2082 21.0434C18.5319 21.0434 18.7942 20.7519 18.7942 20.3922V18.1201C18.7942 17.7604 18.5319 17.469 18.2082 17.469C17.8846 17.469 17.6222 17.7604 17.6222 18.1201V20.3922C17.6222 20.7519 17.8846 21.0434 18.2082 21.0434Z" fill="#FFDA56"/>
<path d="M18.2082 16.4424C18.5319 16.4424 18.7942 16.151 18.7942 15.7913V14.3874C18.7942 14.0278 18.5319 13.7363 18.2082 13.7363C17.8846 13.7363 17.6222 14.0278 17.6222 14.3874V15.7913C17.6222 16.1509 17.8846 16.4424 18.2082 16.4424Z" fill="#FFDA56"/>
<path d="M39.013 18.1787C39.3367 18.1787 39.599 17.8873 39.599 17.5276V12.6511C39.599 12.2914 39.3367 12 39.013 12C38.6893 12 38.427 12.2914 38.427 12.6511V17.5276C38.427 17.8872 38.6893 18.1787 39.013 18.1787Z" fill="#FFDA56"/>
<path d="M41.7918 21.0434C42.1155 21.0434 42.3778 20.7519 42.3778 20.3922V18.1201C42.3778 17.7604 42.1155 17.469 41.7918 17.469C41.4681 17.469 41.2058 17.7604 41.2058 18.1201V20.3922C41.2058 20.7519 41.4682 21.0434 41.7918 21.0434Z" fill="#FFDA56"/>
<path d="M41.7918 16.4424C42.1155 16.4424 42.3778 16.151 42.3778 15.7913V14.3874C42.3778 14.0278 42.1155 13.7363 41.7918 13.7363C41.4681 13.7363 41.2058 14.0278 41.2058 14.3874V15.7913C41.2058 16.1509 41.4682 16.4424 41.7918 16.4424Z" fill="#FFDA56"/>
<path d="M20.3537 30.3186C20.1584 30.5139 19.8418 30.5139 19.6466 30.3186L16.4646 27.1366C16.2693 26.9414 16.2693 26.6248 16.4646 26.4295C16.6599 26.2343 16.9764 26.2343 17.1717 26.4295L20.0001 29.258L22.8285 26.4295C23.0238 26.2343 23.3404 26.2343 23.5357 26.4295C23.7309 26.6248 23.7309 26.9414 23.5357 27.1366L20.3537 30.3186ZM20.5001 20.9651V29.9651H19.5001V20.9651H20.5001Z" fill="#FFDA56"/>
<path d="M40.3536 30.3186C40.1584 30.5139 39.8418 30.5139 39.6465 30.3186L36.4645 27.1366C36.2693 26.9414 36.2693 26.6248 36.4645 26.4295C36.6598 26.2343 36.9764 26.2343 37.1716 26.4295L40.0001 29.258L42.8285 26.4295C43.0238 26.2343 43.3403 26.2343 43.5356 26.4295C43.7309 26.6248 43.7309 26.9414 43.5356 27.1366L40.3536 30.3186ZM40.5001 20.9651V29.9651H39.5001V20.9651H40.5001Z" fill="#FFDA56"/>
<path d="M30.4949 35.46C30.2215 35.7334 29.7783 35.7334 29.505 35.46L25.0502 31.0052C24.7768 30.7319 24.7768 30.2887 25.0502 30.0153C25.3236 29.7419 25.7668 29.7419 26.0401 30.0153L29.9999 33.9751L33.9597 30.0153C34.2331 29.7419 34.6763 29.7419 34.9497 30.0153C35.2231 30.2887 35.2231 30.7319 34.9497 31.0052L30.4949 35.46ZM30.6999 19.9651V34.965H29.2999V19.9651H30.6999Z" fill="#FFDA56"/>
</svg>
