<svg width="21" height="17" viewBox="0 0 21 17" fill="none" xmlns="http://www.w3.org/2000/svg">
<path d="M8.33852 10.7955L16.7023 3.58137C16.7028 3.58094 16.7033 3.5805 16.7038 3.58007C16.8265 3.47534 17.0038 3.28528 17.0139 3.01464C17.0272 2.66017 16.7651 2.46766 16.5761 2.40336C16.397 2.34239 16.2067 2.35257 16.0474 2.38714C15.8808 2.4233 15.7073 2.49457 15.5397 2.60033L5.19725 8.81655L0.872639 7.5245L0.872313 7.52441C0.710073 7.47606 0.607607 7.42401 0.548466 7.38359C0.556269 7.37623 0.565263 7.36818 0.575614 7.35947C0.670005 7.28 0.838723 7.17971 1.10866 7.07882C1.10903 7.07868 1.1094 7.07854 1.10977 7.07841L18.846 0.55601C18.8467 0.55579 18.8473 0.555571 18.8479 0.555353C19.1468 0.448892 19.3149 0.516321 19.3828 0.579173C19.4493 0.640652 19.5753 0.841846 19.462 1.34839L19.9499 1.45752L19.4619 1.34911L16.4446 14.9318C16.3471 15.3395 16.2044 15.4553 16.1305 15.4875C16.0541 15.5208 15.8748 15.5425 15.5281 15.3625L10.9556 12.1462L10.6263 11.9146L10.3298 12.1868L8.11081 14.2239L8.11074 14.2238L8.10371 14.2306C8.0967 14.2372 8.08987 14.2438 8.08322 14.2501L8.33852 10.7955Z" stroke="#828282"/>
</svg>
