<svg width="21" height="24" viewBox="0 0 21 24" fill="none" xmlns="http://www.w3.org/2000/svg">
<path d="M17.7515 2.25045C17.2284 1.72239 15.1113 0.038918 10.3911 0.0163514C10.3911 0.0163514 4.82648 -0.349228 2.11625 2.37682C0.608743 4.02869 0.0774067 6.45235 0.0197423 9.45371C-0.0379221 12.4551 -0.107943 18.0787 4.83884 19.6042H4.84296L4.83884 21.933C4.83884 21.933 4.80589 22.8763 5.37429 23.0659C6.05803 23.3006 6.46168 22.583 7.11658 21.8112C7.47492 21.3869 7.96919 20.7641 8.34401 20.2902C11.7297 20.6016 14.3287 19.8885 14.6253 19.7847C15.309 19.541 19.1767 18.9994 19.8027 13.3758C20.4535 7.57165 19.4897 3.90683 17.7515 2.25045ZM18.3241 12.9515C17.7927 17.6454 14.6583 17.9433 14.0816 18.1464C13.8345 18.2321 11.5485 18.855 8.67764 18.6519C8.67764 18.6519 6.53582 21.4817 5.86856 22.2174C5.65026 22.4566 5.41136 22.434 5.41548 21.9601C5.41548 21.6487 5.43196 18.0922 5.43196 18.0922C5.42784 18.0922 5.42784 18.0922 5.43196 18.0922C1.23893 16.8194 1.48607 12.0308 1.53137 9.52592C1.57668 7.02103 2.00916 4.96747 3.28602 3.58639C5.58024 1.30716 10.3046 1.64566 10.3046 1.64566C14.2958 1.66371 16.207 2.9816 16.6518 3.42391C18.1222 4.80499 18.8719 8.10874 18.3241 12.9515ZM12.5988 9.30477C12.6153 9.69291 12.084 9.71999 12.0675 9.33185C12.0222 8.33892 11.5979 7.85599 10.7247 7.80183C10.3705 7.77926 10.4035 7.19705 10.7536 7.21961C11.9027 7.28731 12.5412 8.00944 12.5988 9.30477ZM13.435 9.81477C13.4761 7.90112 12.3846 6.4027 10.3128 6.23571C9.96273 6.20863 9.9998 5.62641 10.3499 5.65349C12.7389 5.84305 14.0116 7.64387 13.9663 9.82831C13.9622 10.2165 13.4267 10.1984 13.435 9.81477ZM15.3708 10.4196C15.3749 10.8077 14.8395 10.8122 14.8395 10.4241C14.8148 6.74571 12.5782 4.7418 9.86388 4.71923C9.51377 4.71472 9.51377 4.13701 9.86388 4.13701C12.8995 4.15958 15.342 6.45686 15.3708 10.4196ZM14.9054 14.8471V14.8562C14.4606 15.7137 13.6285 16.6615 12.7718 16.3591L12.7636 16.3456C11.8945 16.0793 9.8474 14.9239 8.55407 13.7955C7.88681 13.2178 7.27722 12.5363 6.80766 11.8819C6.38342 11.2997 5.95506 10.6091 5.53905 9.77867C4.66173 8.04104 4.46814 7.26475 4.46814 7.26475C4.19217 6.32598 5.05302 5.41428 5.83973 4.92685H5.84796C6.2269 4.71021 6.58936 4.78242 6.83238 5.10286C6.83238 5.10286 7.34312 5.77084 7.56142 6.10031C7.76736 6.40722 8.04333 6.89917 8.18749 7.17448C8.43874 7.66643 8.28223 8.16741 8.03509 8.37502L7.54083 8.8083C7.28957 9.02946 7.32253 9.44017 7.32253 9.44017C7.32253 9.44017 8.05569 12.4776 10.7947 13.2449C10.7947 13.2449 11.1696 13.281 11.3714 13.0057L11.7668 12.4641C11.9563 12.1933 12.4135 12.0218 12.8624 12.2971C13.4679 12.6717 14.2381 13.2539 14.7489 13.782C15.0372 14.0392 15.1031 14.4319 14.9054 14.8471Z" fill="#828282"/>
</svg>
