<svg width="21" height="20" viewBox="0 0 21 20" fill="none" xmlns="http://www.w3.org/2000/svg">
<g clip-path="url(#clip0_760_2435)">
<path d="M17.1662 2.84073C15.3343 1.00876 12.8991 0 10.3082 0C10.308 0 10.3074 0 10.3073 0C9.02582 0.000152588 7.77704 0.248261 6.59586 0.73761C5.41452 1.22696 4.35617 1.93451 3.44995 2.84073C1.61814 4.67255 0.609377 7.10815 0.609377 9.69879C0.609377 11.2437 0.982149 12.7791 1.68848 14.147L0.0582298 18.8043C-0.0566688 19.1328 0.0246605 19.4899 0.270937 19.736C0.443209 19.9084 0.669955 20 0.903109 20C1.00305 20 1.10407 19.9832 1.20264 19.9487L5.85993 18.3186C7.22788 19.025 8.76322 19.3977 10.3082 19.3977C12.8988 19.3977 15.3343 18.3888 17.1662 16.557C18.998 14.7252 20.007 12.2896 20.007 9.69894C20.007 7.10815 18.9982 4.67255 17.1662 2.84073ZM16.3368 15.7275C14.7265 17.338 12.5854 18.2246 10.3082 18.2246C8.91504 18.2246 7.53107 17.8801 6.30579 17.2279C6.08362 17.1098 5.82102 17.0895 5.58527 17.1721L1.35401 18.653L2.83502 14.4217C2.91757 14.1856 2.89713 13.923 2.77902 13.701C2.12702 12.476 1.78232 11.0921 1.78232 9.69879C1.78232 7.42157 2.66916 5.28046 4.27942 3.6702C5.88953 2.06009 8.03034 1.17325 10.3074 1.17294H10.3082C12.5855 1.17294 14.7265 2.05978 16.3368 3.6702C17.9472 5.28046 18.834 7.42142 18.834 9.69879C18.834 11.9762 17.9472 14.1173 16.3368 15.7275Z" fill="#828282"/>
<path d="M13.9126 10.5653C13.4664 10.1191 12.7404 10.1191 12.2942 10.5653L11.8062 11.0533C10.5945 10.393 9.61402 9.41248 8.95362 8.20078L9.44159 7.7128C9.88791 7.26663 9.88791 6.54062 9.44159 6.09445L8.12659 4.77945C7.68042 4.33328 6.95441 4.33328 6.50824 4.77945L5.4563 5.83139C4.85373 6.43396 4.82367 7.46988 5.37162 8.74841C5.84739 9.85849 6.71805 11.0786 7.82325 12.1838C8.92844 13.289 10.1485 14.1596 11.2586 14.6354C11.8661 14.8957 12.4186 15.0256 12.896 15.0256C13.4235 15.0256 13.8593 14.867 14.1756 14.5507L15.2276 13.4986V13.4988C15.4438 13.2826 15.5628 12.9952 15.5628 12.6896C15.5628 12.3838 15.4438 12.0965 15.2276 11.8804L13.9126 10.5653ZM13.3462 13.7213C13.1742 13.8932 12.6453 13.9535 11.7208 13.5574C10.7445 13.139 9.65491 12.3565 8.65271 11.3543C7.65052 10.3521 6.8682 9.26263 6.4498 8.28638C6.05353 7.36185 6.1138 6.83282 6.28577 6.66086L7.31757 5.62906L8.59198 6.90363L7.98118 7.51459C7.70499 7.79077 7.63831 8.20963 7.81546 8.55692C8.61854 10.1316 9.8754 11.3885 11.4501 12.1916C11.7976 12.3687 12.2164 12.3022 12.4926 12.0258L13.1034 11.415L14.378 12.6896L13.3462 13.7213Z" fill="#828282"/>
</g>
<defs>
<clipPath id="clip0_760_2435">
<rect width="20" height="20" fill="white" transform="translate(0.00695801)"/>
</clipPath>
</defs>
</svg>
